<?xml version="1.0" encoding="UTF-8" standalone="no"?>
<!-- Created with Inkscape (http://www.inkscape.org/) -->

<svg
   width="280"
   height="96"
   viewBox="0 0 74.083334 25.4"
   version="1.1"
   id="svg666"
   inkscape:version="1.2.1 (9c6d41e410, 2022-07-14)"
   sodipodi:docname="wp_logo_mobile_retina_rojo.svg"
   xmlns:inkscape="http://www.inkscape.org/namespaces/inkscape"
   xmlns:sodipodi="http://sodipodi.sourceforge.net/DTD/sodipodi-0.dtd"
   xmlns="http://www.w3.org/2000/svg"
   xmlns:svg="http://www.w3.org/2000/svg">
  <sodipodi:namedview
     id="namedview668"
     pagecolor="#ffffff"
     bordercolor="#666666"
     borderopacity="1.0"
     inkscape:showpageshadow="2"
     inkscape:pageopacity="0.0"
     inkscape:pagecheckerboard="true"
     inkscape:deskcolor="#d1d1d1"
     inkscape:document-units="mm"
     showgrid="false"
     inkscape:zoom="1.3228492"
     inkscape:cx="86.555597"
     inkscape:cy="111.87972"
     inkscape:window-width="1360"
     inkscape:window-height="705"
     inkscape:window-x="-8"
     inkscape:window-y="-8"
     inkscape:window-maximized="1"
     inkscape:current-layer="layer1" />
  <defs
     id="defs663" />
  <g
     inkscape:label="Capa 1"
     inkscape:groupmode="layer"
     id="layer1">
    <path
       d="M 5.2491551,7.7774774 H 0.58443828 V 17.621847 H 5.2491551 c 2.7261331,0 4.9221849,-2.211197 4.9221849,-4.93733 0,-2.7109878 -1.9082932,-4.9070396 -4.9221849,-4.9070396 z M 5.4763329,15.259198 H 2.9470871 v -5.119072 c 0,0 1.8931481,0 2.5292458,0 1.2419051,0 2.3323584,1.075308 2.3323584,2.544391 0,1.469083 -1.1055986,2.529246 -2.3323584,2.574681 z"
       id="path918"
       style="font-size:7.45946px;line-height:1.25;font-family:Axis;-inkscape-font-specification:Axis;letter-spacing:0px;word-spacing:0px;fill:#ffffff;stroke-width:0.747301" />
    <path
       d="m 19.043421,7.7746142 c 0,0 0,4.7073808 0,4.7073808 0,1.505182 -1.062481,2.759499 -2.523393,2.759499 -1.475668,0 -2.538149,-1.254317 -2.538149,-2.759499 0,0 0,-4.7073808 0,-4.7073808 h -2.346312 c 0,0 0,4.7073808 0,4.7073808 0,3.084146 2.154475,5.135325 4.884461,5.135325 2.71523,0 4.869705,-2.051179 4.869705,-5.135325 0,0 0,-4.7073808 0,-4.7073808 z"
       id="path921"
       style="font-size:7.26811px;line-height:1.25;font-family:Axis;-inkscape-font-specification:Axis;letter-spacing:0px;word-spacing:0px;fill:#ffffff;stroke-width:0.72813" />
    <path
       d="M 31.176178,11.428576 C 31.070134,9.5047461 29.676499,7.7778433 27.64663,7.7778433 c -1.166416,0 -4.786853,0 -4.786853,0 v 9.8463757 h 2.408576 v -2.090461 h 2.029868 c 2.060164,0 3.756771,-1.620865 3.877957,-3.650733 0,-0.07574 0,-0.151484 0,-0.227225 0,-0.07574 0,-0.151483 0,-0.227224 z m -3.908254,1.696607 h -1.999571 v -2.938765 h 2.029868 c 0.802858,0.01515 1.439085,0.666524 1.439085,1.469382 0,0.818007 -0.651375,1.469383 -1.469382,1.469383 z"
       id="path924"
       style="font-size:7.46098px;line-height:1.25;font-family:Axis;-inkscape-font-specification:Axis;letter-spacing:0px;word-spacing:0px;fill:#ffffff;stroke-width:0.747453" />
    <path
       d="M 34.996876,15.26023 V 7.7760113 h -2.363437 v 9.8476557 h 8.529586 V 15.26023 Z"
       id="path927"
       style="font-size:7.46195px;line-height:1.25;font-family:Axis;-inkscape-font-specification:Axis;letter-spacing:0px;word-spacing:0px;fill:#ffffff;stroke-width:0.74755" />
    <path
       d="m 47.535096,7.77539 c -2.731461,0 -4.931006,2.2139218 -4.931006,4.931007 0,2.717086 2.199545,4.916632 4.931006,4.916632 2.717086,0 4.916633,-2.199546 4.916633,-4.916632 0,-2.7170852 -2.199547,-4.931007 -4.916633,-4.931007 z m 0,7.691222 c -1.538243,0 -2.77459,-1.236346 -2.77459,-2.760215 0,-1.523868 1.236347,-2.7745897 2.77459,-2.7745897 1.523868,0 2.760215,1.2507217 2.760215,2.7745897 0,1.523869 -1.236347,2.760215 -2.760215,2.760215 z"
       id="path930"
       style="font-size:7.08067px;line-height:1.25;font-family:Axis;-inkscape-font-specification:Axis;letter-spacing:0px;word-spacing:0px;fill:#ffffff;stroke-width:0.709358" />
    <path
       d="m 58.083667,17.625386 c 2.227961,0 4.125321,-1.351151 4.125321,-2.961032 0,-2.472319 -2.457943,-2.788545 -3.765973,-3.032902 -0.517461,-0.08624 -1.96923,-0.08624 -1.96923,-0.848063 0,-0.632453 0.675575,-1.1355412 1.49489,-1.1355412 1.221785,0 1.609883,0.4887142 1.609883,0.7186972 h 2.314203 c 0,-1.2505331 -1.293655,-2.5873097 -3.924086,-2.5873097 -2.156092,0 -3.924085,1.3511506 -3.924085,3.0041537 0,1.767995 1.854238,2.256709 2.946658,2.472318 0.618078,0.129365 2.788544,0.215609 2.788544,1.408647 0,0.574957 -0.804941,1.106793 -1.696125,1.106793 -1.653004,0 -1.753621,-1.264907 -1.753621,-1.279281 H 53.90085 c 0,1.264907 1.322403,3.13352 4.182817,3.13352 z"
       id="path933"
       style="font-size:7.0796px;line-height:1.25;font-family:Axis;-inkscape-font-specification:Axis;letter-spacing:0px;word-spacing:0px;fill:#ffffff;stroke-width:0.709246" />
    <path
       id="path5638"
       style="fill:#ffffff;stroke-width:0.123995"
       d="m 73.498901,12.701269 a 4.9221135,4.9221135 0 0 1 -4.922112,4.922114 4.9221135,4.9221135 0 0 1 -4.922112,-4.922114 4.9221135,4.9221135 0 0 1 4.922112,-4.9221135 4.9221135,4.9221135 0 0 1 4.922112,4.9221135 z" />
    <path
       d="m 67.794571,13.217503 c -0.256379,0.216941 -0.458534,0.320481 -0.779012,0.320481 -0.522626,0 -0.946649,-0.42402 -0.946649,-0.94665 0,-0.522629 0.424023,-0.951579 0.946649,-0.951579 0.320478,0 0.562072,0.128192 0.779012,0.32541 l 0.581797,-0.374715 c -0.305687,-0.41909 -0.803666,-0.690265 -1.360809,-0.690265 -0.931858,0 -1.686221,0.759291 -1.686221,1.691149 0,0.931858 0.754363,1.68622 1.686221,1.68622 0.557143,0 1.055122,-0.266246 1.360809,-0.685335 z"
       style="font-size:83.6344px;line-height:1.25;font-family:Axis;-inkscape-font-specification:Axis;letter-spacing:0px;word-spacing:0px;fill:#f33648;stroke-width:0.182462;fill-opacity:1"
       id="path937" />
    <path
       d="m 69.756902,13.424583 v -2.43565 h -0.769154 v 3.204802 h 2.775854 v -0.769152 z"
       style="font-size:83.6344px;line-height:1.25;font-family:Axis;-inkscape-font-specification:Axis;letter-spacing:0px;word-spacing:0px;fill:#f33648;stroke-width:0.182462;fill-opacity:1"
       id="path939" />
  </g>
</svg>
